<svg width="15" height="15" viewBox="0 0 15 15" fill="none" xmlns="http://www.w3.org/2000/svg">
<g clip-path="url(#clip0_51_3946)">
<path d="M7.50035 14.9851C11.634 14.9851 14.9851 11.634 14.9851 7.50035C14.9851 3.36665 11.634 0.015625 7.50035 0.015625C3.36665 0.015625 0.015625 3.36665 0.015625 7.50035C0.015625 11.634 3.36665 14.9851 7.50035 14.9851Z" fill="#FC3F1D"/>
<path d="M10.2082 12.1994H8.5651V4.073H7.83316C6.49149 4.073 5.78871 4.74384 5.78871 5.74523C5.78871 6.88134 6.27344 7.40772 7.27622 8.07856L8.1026 8.6355L5.7276 12.198H3.96094L6.09844 9.01745C4.86927 8.13967 4.1776 7.28273 4.1776 5.83689C4.1776 4.02995 5.43733 2.80078 7.82205 2.80078H10.197V12.1966H10.2082V12.1994Z" fill="white"/>
</g>
<defs>
<clipPath id="clip0_51_3946">
<rect width="15" height="15" fill="white"/>
</clipPath>
</defs>
</svg>
